<svg width="204" height="62" viewBox="0 0 204 62" fill="none" xmlns="http://www.w3.org/2000/svg">
<path d="M0.287598 6.30356C0.287598 3.20419 2.80014 0.69165 5.89951 0.69165H198.388C201.487 0.69165 204 3.20419 204 6.30356V55.5481C204 58.6475 201.487 61.16 198.388 61.16H5.89951C2.80013 61.16 0.287598 58.6475 0.287598 55.5481V6.30356Z" fill="black"/>
<path fill-rule="evenodd" clip-rule="evenodd" d="M198.388 2.09463H5.89951C3.57498 2.09463 1.69058 3.97903 1.69058 6.30356V55.5481C1.69058 57.8726 3.57498 59.757 5.89951 59.757H198.388C200.713 59.757 202.597 57.8726 202.597 55.5481V6.30356C202.597 3.97903 200.713 2.09463 198.388 2.09463ZM5.89951 0.69165C2.80014 0.69165 0.287598 3.20419 0.287598 6.30356V55.5481C0.287598 58.6475 2.80013 61.16 5.89951 61.16H198.388C201.487 61.16 204 58.6475 204 55.5481V6.30356C204 3.20419 201.487 0.69165 198.388 0.69165H5.89951Z" fill="#A6A6A6"/>
<path fill-rule="evenodd" clip-rule="evenodd" d="M198.388 2.09463H5.89951C3.57498 2.09463 1.69058 3.97903 1.69058 6.30356V55.5481C1.69058 57.8726 3.57498 59.757 5.89951 59.757H198.388C200.713 59.757 202.597 57.8726 202.597 55.5481V6.30356C202.597 3.97903 200.713 2.09463 198.388 2.09463ZM5.89951 0.69165C2.80014 0.69165 0.287598 3.20419 0.287598 6.30356V55.5481C0.287598 58.6475 2.80013 61.16 5.89951 61.16H198.388C201.487 61.16 204 58.6475 204 55.5481V6.30356C204 3.20419 201.487 0.69165 198.388 0.69165H5.89951Z" fill="#8F8F8F"/>
<path fill-rule="evenodd" clip-rule="evenodd" d="M78.4799 47.1303H81.9038L74.4087 26.3713H70.9416L63.4465 47.1303H66.7553L68.6687 41.6205H76.581L78.4799 47.1303ZM72.5097 30.1404H72.7543L75.761 38.9159H69.4887L72.5097 30.1404ZM90.9822 31.205C88.8531 31.205 87.0117 32.2696 86.0622 34.0534H85.832V31.464H82.8541V52.2086H85.9471V44.7566H86.1917C87.0117 46.411 88.7812 47.3893 91.011 47.3893C94.9671 47.3893 97.4847 44.2675 97.4847 39.2899C97.4847 34.3124 94.9671 31.205 90.9822 31.205ZM90.1047 44.6128C87.5152 44.6128 85.8896 42.57 85.8896 39.3043C85.8896 36.0243 87.5152 33.9815 90.1191 33.9815C92.7373 33.9815 94.3054 35.9812 94.3054 39.2899C94.3054 42.6131 92.7373 44.6128 90.1047 44.6128ZM107.023 31.205C104.894 31.205 103.053 32.2696 102.103 34.0534H101.873V31.464H98.8954V52.2086H101.988V44.7566H102.233C103.053 46.411 104.822 47.3893 107.052 47.3893C111.008 47.3893 113.526 44.2675 113.526 39.2899C113.526 34.3124 111.008 31.205 107.023 31.205ZM106.146 44.6128C103.556 44.6128 101.931 42.57 101.931 39.3043C101.931 36.0243 103.556 33.9815 106.16 33.9815C108.779 33.9815 110.347 35.9812 110.347 39.2899C110.347 42.6131 108.779 44.6128 106.146 44.6128ZM120.073 41.5485C120.304 45.2601 123.397 47.6338 128 47.6338C132.92 47.6338 135.999 45.145 135.999 41.1745C135.999 38.0527 134.244 36.3264 129.985 35.3338L127.698 34.7727C124.993 34.1398 123.9 33.291 123.9 31.8092C123.9 29.939 125.598 28.7162 128.144 28.7162C130.561 28.7162 132.23 29.9103 132.532 31.8236H135.668C135.481 28.3278 132.402 25.8678 128.187 25.8678C123.655 25.8678 120.634 28.3278 120.634 32.025C120.634 35.0748 122.346 36.8875 126.101 37.765L128.777 38.4124C131.525 39.0598 132.733 40.0092 132.733 41.5917C132.733 43.4331 130.834 44.771 128.245 44.771C125.468 44.771 123.54 43.5194 123.267 41.5485H120.073ZM138.661 27.666V31.5359H136.086V34.1398H138.661V42.9871C138.661 46.0082 140.028 47.2166 143.466 47.2166C144.07 47.2166 144.631 47.1447 145.12 47.0584V44.4833C144.689 44.5264 144.444 44.5552 143.969 44.5552C142.43 44.5552 141.754 43.8359 141.754 42.1959V34.1398H145.264V31.5359H141.754V27.666H138.661ZM152.933 44.6847C150.243 44.6847 148.732 42.7138 148.732 39.2899C148.732 35.8948 150.243 33.9096 152.933 33.9096C155.609 33.9096 157.133 35.8948 157.133 39.2899C157.133 42.6994 155.609 44.6847 152.933 44.6847ZM152.933 47.4324C157.507 47.4324 160.313 44.3682 160.313 39.2899C160.313 34.2405 157.493 31.1618 152.933 31.1618C148.358 31.1618 145.538 34.2405 145.538 39.2899C145.538 44.3682 148.344 47.4324 152.933 47.4324ZM161.723 47.1303H164.816V37.8801C164.816 35.6791 166.471 34.1973 168.801 34.1973C169.319 34.1973 170.269 34.298 170.513 34.3843V31.3345C170.182 31.2482 169.593 31.205 169.147 31.205C167.104 31.205 165.378 32.3271 164.932 33.8664H164.701V31.464H161.723V47.1303ZM177.477 33.7945C179.764 33.7945 181.261 35.3913 181.332 37.8513H173.42C173.593 35.4057 175.19 33.7945 177.477 33.7945ZM181.318 42.9008C180.743 44.1236 179.462 44.7998 177.592 44.7998C175.118 44.7998 173.521 43.0591 173.42 40.3113V40.1387H184.483V39.0598C184.483 34.1398 181.85 31.1618 177.491 31.1618C173.075 31.1618 170.27 34.3412 170.27 39.3475C170.27 44.3538 173.017 47.4324 177.506 47.4324C181.088 47.4324 183.591 45.7061 184.296 42.9008H181.318Z" fill="white"/>
<path fill-rule="evenodd" clip-rule="evenodd" d="M66.3452 10.1675V20.0528H69.9143C72.86 20.0528 74.5658 18.2374 74.5658 15.0793C74.5658 11.9692 72.8463 10.1675 69.9143 10.1675H66.3452ZM67.8797 11.565H69.7431C71.7913 11.565 73.0039 12.8666 73.0039 15.0999C73.0039 17.3674 71.8119 18.6553 69.7431 18.6553H67.8797V11.565ZM79.9653 18.8882C78.6843 18.8882 77.965 17.9497 77.965 16.3193C77.965 14.7026 78.6843 13.7572 79.9653 13.7572C81.2395 13.7572 81.9657 14.7026 81.9657 16.3193C81.9657 17.9428 81.2395 18.8882 79.9653 18.8882ZM79.9653 20.1966C82.1438 20.1966 83.4796 18.7375 83.4796 16.3193C83.4796 13.9147 82.1369 12.4487 79.9653 12.4487C77.7869 12.4487 76.4442 13.9147 76.4442 16.3193C76.4442 18.7375 77.78 20.1966 79.9653 20.1966ZM95.0241 12.5926H93.5512L92.2222 18.2854H92.1058L90.5712 12.5926H89.16L87.6255 18.2854H87.5159L86.1801 12.5926H84.6867L86.7418 20.0528H88.2558L89.7903 14.5587H89.9068L91.4481 20.0528H92.9758L95.0241 12.5926ZM96.8956 20.0528H98.3685V15.689C98.3685 14.5244 99.0946 13.7983 100.28 13.7983C101.376 13.7983 101.91 14.3943 101.91 15.5931V20.0528H103.383V15.2232C103.383 13.4489 102.444 12.4487 100.78 12.4487C99.6564 12.4487 98.7863 12.9488 98.4233 13.7777H98.3137V12.5926H96.8956V20.0528ZM105.871 20.0528H107.344V9.68115H105.871V20.0528ZM113.052 18.8882C111.771 18.8882 111.051 17.9497 111.051 16.3193C111.051 14.7026 111.771 13.7572 113.052 13.7572C114.326 13.7572 115.052 14.7026 115.052 16.3193C115.052 17.9428 114.326 18.8882 113.052 18.8882ZM113.052 20.1966C115.23 20.1966 116.566 18.7375 116.566 16.3193C116.566 13.9147 115.223 12.4487 113.052 12.4487C110.873 12.4487 109.531 13.9147 109.531 16.3193C109.531 18.7375 110.866 20.1966 113.052 20.1966ZM121.123 18.9361C120.322 18.9361 119.739 18.5457 119.739 17.8743C119.739 17.2167 120.205 16.8673 121.233 16.7988L123.055 16.6823V17.3057C123.055 18.2305 122.233 18.9361 121.123 18.9361ZM120.746 20.1761C121.726 20.1761 122.541 19.7514 122.986 19.0047H123.103V20.0528H124.521V14.956C124.521 13.3804 123.466 12.4487 121.596 12.4487C119.904 12.4487 118.698 13.2708 118.547 14.5518H119.972C120.137 14.0244 120.705 13.7229 121.527 13.7229C122.534 13.7229 123.055 14.1682 123.055 14.956V15.6L121.034 15.7164C119.26 15.826 118.26 16.6001 118.26 17.9428C118.26 19.3061 119.308 20.1761 120.746 20.1761ZM129.694 20.1761C130.722 20.1761 131.592 19.6897 132.037 18.8745H132.154V20.0528H133.565V9.68115H132.092V13.7777H131.982C131.578 12.9557 130.715 12.4693 129.694 12.4693C127.81 12.4693 126.598 13.9627 126.598 16.3193C126.598 18.6827 127.797 20.1761 129.694 20.1761ZM130.112 13.7914C131.345 13.7914 132.119 14.7711 132.119 16.3261C132.119 17.888 131.352 18.8539 130.112 18.8539C128.865 18.8539 128.119 17.9017 128.119 16.3193C128.119 14.7505 128.872 13.7914 130.112 13.7914ZM143.46 18.8882C142.179 18.8882 141.459 17.9497 141.459 16.3193C141.459 14.7026 142.179 13.7572 143.46 13.7572C144.734 13.7572 145.46 14.7026 145.46 16.3193C145.46 17.9428 144.734 18.8882 143.46 18.8882ZM143.46 20.1966C145.638 20.1966 146.974 18.7375 146.974 16.3193C146.974 13.9147 145.631 12.4487 143.46 12.4487C141.281 12.4487 139.939 13.9147 139.939 16.3193C139.939 18.7375 141.274 20.1966 143.46 20.1966ZM149.092 20.0528H150.565V15.689C150.565 14.5244 151.291 13.7983 152.476 13.7983C153.572 13.7983 154.107 14.3943 154.107 15.5931V20.0528H155.58V15.2232C155.58 13.4489 154.641 12.4487 152.976 12.4487C151.853 12.4487 150.983 12.9488 150.62 13.7777H150.51V12.5926H149.092V20.0528ZM162.707 10.7841V12.6269H161.481V13.8668H162.707V18.0798C162.707 19.5184 163.358 20.0939 164.995 20.0939C165.283 20.0939 165.55 20.0596 165.783 20.0185V18.7923C165.577 18.8128 165.461 18.8265 165.235 18.8265C164.502 18.8265 164.18 18.484 164.18 17.7031V13.8668H165.851V12.6269H164.18V10.7841H162.707ZM167.949 20.0528H169.422V15.6959C169.422 14.5655 170.168 13.8051 171.374 13.8051C172.484 13.8051 173.039 14.408 173.039 15.6V20.0528H174.512V15.2369C174.512 13.4626 173.552 12.4556 171.874 12.4556C170.751 12.4556 169.887 12.9557 169.524 13.7914H169.408V9.68115H167.949V20.0528ZM180 13.7024C181.089 13.7024 181.802 14.4628 181.836 15.6342H178.068C178.151 14.4696 178.911 13.7024 180 13.7024ZM181.829 18.0387C181.555 18.621 180.946 18.943 180.055 18.943C178.877 18.943 178.116 18.1141 178.068 16.8057V16.7234H183.336V16.2097C183.336 13.8668 182.083 12.4487 180.007 12.4487C177.904 12.4487 176.568 13.9627 176.568 16.3467C176.568 18.7306 177.876 20.1966 180.014 20.1966C181.72 20.1966 182.912 19.3746 183.247 18.0387H181.829Z" fill="white"/>
<path fill-rule="evenodd" clip-rule="evenodd" d="M45.6512 31.2141C45.6061 26.1963 49.7598 23.7551 49.9498 23.6415C47.5973 20.2117 43.9511 19.7431 42.6698 19.7057C39.6075 19.3834 36.6369 21.5381 35.077 21.5381C33.4858 21.5381 31.0836 19.7368 28.4945 19.7898C25.1628 19.8412 22.0459 21.7701 20.3365 24.7655C16.8086 30.8732 19.4397 39.8485 22.8197 44.7854C24.5105 47.2048 26.4861 49.9028 29.0721 49.8079C31.602 49.7051 32.547 48.1949 35.6001 48.1949C38.6251 48.1949 39.5125 49.8079 42.1498 49.7456C44.865 49.7051 46.5745 47.3184 48.2061 44.8772C50.1599 42.1091 50.9446 39.3768 50.9757 39.2367C50.9135 39.2164 45.7042 37.2283 45.6512 31.2141Z" fill="white"/>
<path fill-rule="evenodd" clip-rule="evenodd" d="M40.6692 16.458C42.0299 14.7563 42.9609 12.4412 42.7025 10.0919C40.7331 10.1791 38.2701 11.4542 36.8518 13.1185C35.5969 14.5851 34.476 16.9889 34.7656 19.2494C36.9779 19.4145 39.2494 18.1332 40.6692 16.458Z" fill="white"/>
</svg>
