<svg width="1440" height="708" viewBox="0 0 1440 708" fill="none" xmlns="http://www.w3.org/2000/svg">
<path d="M868.22 693.26L2131.49 -35.2931C2158.84 -51.6651 2158.84 -91.2308 2131.49 -106.238L1404.15 -525.089C1369.97 -544.189 -103.321 -636.514 -137.5 -617.414C-91.4541 -394.138 -117.544 164.639 -27.4519 214.086L760.213 693.26C793.026 712.361 835.408 712.361 868.22 693.26Z" fill="#211048"/>
<path d="M1364.32 320.451L1854.05 38.2605C1864.65 31.9191 1864.65 16.5942 1854.05 10.7812L1572.08 -151.452C1558.83 -158.85 1542.93 -158.85 1529.68 -151.452L1039.95 130.21C1029.35 136.552 1029.35 151.876 1039.95 157.689L1322.45 320.451C1335.17 327.849 1351.6 327.849 1364.32 320.451Z" fill="url(#paint0_linear)"/>
<path d="M1068.74 491.496L1289.42 364.13C1294.19 361.268 1294.19 354.351 1289.42 351.728L1162.36 278.504C1156.39 275.165 1149.23 275.165 1143.26 278.504L922.582 405.631C917.806 408.493 917.806 415.41 922.582 418.034L1049.88 491.496C1055.61 494.835 1063.01 494.835 1068.74 491.496Z" fill="url(#paint1_linear)"/>
<path d="M1360.38 590.864L1636.52 431.365C1642.49 427.781 1642.49 419.119 1636.52 415.833L1477.53 324.136C1470.06 319.955 1461.09 319.955 1453.62 324.136L1177.48 483.336C1171.51 486.921 1171.51 495.583 1177.48 498.868L1336.77 590.864C1343.94 595.045 1353.21 595.045 1360.38 590.864Z" fill="url(#paint2_linear)"/>
<path d="M906.592 161.645L1202.2 -8.95454C1208.6 -12.7882 1208.6 -22.053 1202.2 -25.5672L1032 -123.646C1024 -128.119 1014.41 -128.119 1006.41 -123.646L710.799 46.6341C704.4 50.4678 704.4 59.7326 710.799 63.2468L881.318 161.645C888.996 166.118 898.914 166.118 906.592 161.645Z" fill="url(#paint3_linear)"/>
<defs>
<linearGradient id="paint0_linear" x1="1447" y1="-157" x2="1447" y2="326" gradientUnits="userSpaceOnUse">
<stop stop-color="#0EF4B1"/>
<stop offset="1" stop-color="#00E58B"/>
<stop offset="1" stop-color="#03DA8D"/>
</linearGradient>
<linearGradient id="paint1_linear" x1="1106" y1="276" x2="1106" y2="494" gradientUnits="userSpaceOnUse">
<stop stop-color="#01CCFF"/>
<stop offset="1" stop-color="#0193FF"/>
</linearGradient>
<linearGradient id="paint2_linear" x1="1407" y1="321" x2="1407" y2="594" gradientUnits="userSpaceOnUse">
<stop stop-color="#FCD000"/>
<stop offset="0.994792" stop-color="#F4A136"/>
</linearGradient>
<linearGradient id="paint3_linear" x1="956.5" y1="-127" x2="956.5" y2="165" gradientUnits="userSpaceOnUse">
<stop stop-color="#AE43FB"/>
<stop offset="1" stop-color="#891BFF"/>
</linearGradient>
</defs>
</svg>
