<svg width="141" height="141" viewBox="0 0 141 141" fill="none" xmlns="http://www.w3.org/2000/svg">
<path d="M70.5 141C109.436 141 141 109.436 141 70.5C141 31.5639 109.436 0 70.5 0C31.5639 0 0 31.5639 0 70.5C0 109.436 31.5639 141 70.5 141Z" fill="url(#paint0_linear)"/>
<path d="M91.0554 33.1917L70.4994 53.7477L49.9428 33.1911C44.5987 27.8476 37.7122 28.4401 32.3681 33.7836C27.024 39.1277 27.6165 46.6067 32.9606 51.9508L52.9247 71.9149L32.9606 91.2865C27.6165 96.6306 26.4321 104.702 31.7762 110.046L62.3279 140.526C65.0097 140.835 67.7353 141 70.4994 141C109.436 141 140.999 109.436 140.999 70.4997C140.999 68.3358 140.896 66.1961 140.706 64.0819L109.223 32.5987C103.878 27.2558 96.3995 27.8482 91.0554 33.1917Z" fill="url(#paint1_linear)"/>
<path d="M89.8513 71.3226L109.223 51.9509C114.567 46.6069 114.567 37.9435 109.223 32.5994C103.879 27.2559 95.2155 27.2559 89.8714 32.5994L70.4998 51.9711L51.1281 32.5994C45.784 27.2559 37.1207 27.2559 31.7766 32.5994C26.4325 37.9435 26.4325 46.6069 31.7766 51.9509L51.1483 71.3226L31.7766 90.6942C26.4325 96.0383 26.4325 104.702 31.7766 110.046C34.4484 112.717 37.9505 114.053 41.4521 114.053C44.9536 114.053 48.4558 112.717 51.1275 110.046L70.4998 90.6741L89.8714 110.046C92.5432 112.717 96.0453 114.053 99.5475 114.053C103.05 114.053 106.551 112.717 109.223 110.046C114.567 104.702 114.567 96.0383 109.223 90.6942L89.8513 71.3226Z" fill="url(#paint2_linear)"/>
<defs>
<linearGradient id="paint0_linear" x1="37.7093" y1="37.7093" x2="105.662" y2="105.661" gradientUnits="userSpaceOnUse">
<stop stop-color="#FF637B"/>
<stop offset="1" stop-color="#E63950"/>
</linearGradient>
<linearGradient id="paint1_linear" x1="117.732" y1="118.555" x2="67.35" y2="68.173" gradientUnits="userSpaceOnUse">
<stop stop-color="#E63950" stop-opacity="0"/>
<stop offset="0.0467" stop-color="#E4354B" stop-opacity="0.047"/>
<stop offset="0.4669" stop-color="#D31822" stop-opacity="0.467"/>
<stop offset="0.7991" stop-color="#C90709" stop-opacity="0.799"/>
<stop offset="1" stop-color="#C50000"/>
</linearGradient>
<linearGradient id="paint2_linear" x1="54.4279" y1="55.2507" x2="84.2355" y2="85.0583" gradientUnits="userSpaceOnUse">
<stop stop-color="#EDF5FF"/>
<stop offset="1" stop-color="#D5E8FE"/>
</linearGradient>
</defs>
</svg>
