<svg width="109" height="91" viewBox="0 0 109 91" fill="none" xmlns="http://www.w3.org/2000/svg">
<path d="M38.1329 17.3425C31.7261 13.8734 26.4651 8.48064 23.0804 1.91369C21.7653 -0.637896 18.2347 -0.637896 16.9194 1.91369C13.5348 8.48064 8.27361 13.8734 1.86702 17.3425C-0.62234 18.6905 -0.62234 22.3093 1.86702 23.6575C8.27383 27.1266 13.5348 32.5194 16.9196 39.0863C18.2347 41.6379 21.7653 41.6379 23.0806 39.0863C26.4654 32.5194 31.7264 27.1269 38.1332 23.6575C40.6223 22.3095 40.6223 18.6907 38.1329 17.3425Z" fill="url(#paint0_linear)"/>
<path d="M38.1241 17.3426C31.6272 13.8746 26.2916 8.48454 22.8579 1.92075C21.5273 -0.622471 17.9423 -0.649328 16.6137 1.89506C16.595 1.93102 16.576 1.96699 16.5571 2.00295C15.6686 3.69003 15.8584 5.74585 17.0154 7.25731C20.1985 11.4157 24.2399 14.8687 28.874 17.3424C31.3788 18.6794 31.3788 22.3202 28.874 23.6575C24.2399 26.1311 20.1985 29.5842 17.0154 33.7425C15.8584 35.2542 15.6686 37.31 16.5571 38.9969C16.576 39.0328 16.595 39.0688 16.6137 39.1048C17.9423 41.6494 21.5271 41.6225 22.8577 39.0791C26.2914 32.5153 31.627 27.1252 38.1238 23.6572C40.6254 22.3226 40.6254 18.678 38.1241 17.3426Z" fill="url(#paint1_linear)"/>
<path d="M102.58 64.2299C101.138 63.3838 99.9546 62.0684 99.1931 60.4667C98.8972 59.8444 98.1028 59.8444 97.8069 60.4667C97.0453 62.0684 95.8616 63.3838 94.4201 64.2299C93.86 64.5587 93.86 65.4414 94.4201 65.7701C95.8616 66.6162 97.0454 67.9316 97.8069 69.5333C98.1028 70.1556 98.8972 70.1556 99.1931 69.5333C99.9547 67.9316 101.138 66.6162 102.58 65.7701C103.14 65.4413 103.14 64.5586 102.58 64.2299Z" fill="url(#paint2_linear)"/>
<path d="M102.603 64.229C101.24 63.3821 100.121 62.0655 99.4005 60.4622C99.1218 59.842 98.3659 59.848 98.0869 60.468C98.083 60.4768 98.079 60.4856 98.075 60.4944C97.8915 60.8987 97.9312 61.3918 98.1692 61.755C98.838 62.7756 99.6886 63.6228 100.664 64.2291C101.194 64.558 101.194 65.442 100.664 65.771C99.6885 66.3772 98.838 67.2245 98.1692 68.245C97.9311 68.6081 97.8914 69.1013 98.075 69.5056C98.079 69.5144 98.083 69.5231 98.0869 69.532C98.3659 70.152 99.1218 70.158 99.4005 69.5378C100.121 67.9345 101.24 66.618 102.603 65.771C103.132 65.4423 103.132 64.5576 102.603 64.229Z" fill="url(#paint3_linear)"/>
<path d="M42.2211 42.293H40.0173C38.7412 42.293 37.7066 41.2586 37.7066 39.9824V37.7784C37.7066 36.8438 36.9866 36.0288 36.0524 36.0008C35.0858 35.9717 34.2929 36.7468 34.2929 37.707V39.9826C34.2929 41.2586 33.2586 42.2932 31.9823 42.2932H29.7784C28.8438 42.2932 28.0288 43.0133 28.0008 43.9475C27.9717 44.9141 28.7468 45.707 29.707 45.707H31.9825C33.2586 45.707 34.2932 46.7414 34.2932 48.0176V50.2216C34.2932 51.1562 35.0132 51.9712 35.9474 51.9992C36.914 52.0283 37.7069 51.2532 37.7069 50.293V48.0174C37.7069 46.7414 38.7412 45.7068 40.0175 45.7068H42.2931C43.2532 45.7068 44.0281 44.9141 43.9992 43.9473C43.9708 43.0133 43.1558 42.293 42.2211 42.293Z" fill="url(#paint4_linear)"/>
<path d="M106.999 10.6863H104.519C103.084 10.6863 101.92 9.58731 101.92 8.23126V5.8896C101.92 4.8965 101.11 4.03059 100.059 4.00084C98.9716 3.96989 98.0795 4.79349 98.0795 5.81367V8.2315C98.0795 9.58731 96.9159 10.6866 95.4801 10.6866H93.0007C91.9492 10.6866 91.0324 11.4516 91.0009 12.4443C90.9681 13.4712 91.8402 14.3137 92.9203 14.3137H95.4804C96.9159 14.3137 98.0798 15.4127 98.0798 16.7687V19.1104C98.0798 20.1035 98.8899 20.9694 99.9409 20.9992C101.028 21.0301 101.92 20.2065 101.92 19.1863V16.7685C101.92 15.4127 103.084 14.3134 104.52 14.3134H107.08C108.16 14.3134 109.032 13.4712 108.999 12.444C108.967 11.4516 108.05 10.6863 106.999 10.6863Z" fill="url(#paint5_linear)"/>
<g clip-path="url(#clip0)">
<path d="M73.101 81.5973V80.0783C73.101 79.6608 73.294 79.2669 73.6238 79.0111C74.3209 78.4703 74.3209 77.4175 73.6238 76.8767C73.294 76.6209 73.101 76.2269 73.101 75.8095V74.2905C73.101 73.7592 73.5317 73.3287 74.0627 73.3287C74.594 73.3287 75.0245 72.8981 75.0245 72.3669V71.2757C75.0245 70.7445 74.5938 70.3139 74.0627 70.3139C73.5315 70.3139 73.101 69.8832 73.101 69.3522V66.4499C73.101 65.9187 73.5317 65.4881 74.0627 65.4881C74.594 65.4881 75.0245 65.0574 75.0245 64.5264V59.6241H64.1475V84.3878C64.1475 85.3693 64.5072 86.3166 65.1584 87.0508L68.0481 90.3084C68.8661 91.2305 70.306 91.2305 71.1239 90.3084L74.0137 87.0508C74.665 86.3166 75.0246 85.3693 75.0246 84.3878V83.5209C75.0246 82.9897 74.5939 82.559 74.0629 82.559C73.5317 82.5592 73.101 82.1285 73.101 81.5973Z" fill="url(#paint6_linear)"/>
<path d="M71.3212 59.6241V85.3231C71.3212 86.2814 70.5444 87.0582 69.5862 87.0582C68.6279 87.0582 67.8511 86.2814 67.8511 85.3231V59.6241H71.3212Z" fill="url(#paint7_linear)"/>
<path d="M75.0246 71.2757C75.0246 70.7445 74.5939 70.3139 74.0627 70.3139C73.5315 70.3139 73.101 69.8832 73.101 69.3522V66.4499C73.101 65.9187 73.5317 65.4882 74.0627 65.4882C74.5939 65.4882 75.0246 65.0576 75.0246 64.5264V59.6241H64.1475V62.1897L74.8612 72.9035C74.9644 72.7502 75.0247 72.5657 75.0247 72.367V71.2757H75.0246Z" fill="url(#paint8_linear)"/>
<path d="M69.5859 31.9926C60.9185 31.9926 53.8918 39.0191 53.8918 47.6866C53.8918 56.3542 60.9184 63.3807 69.5859 63.3807C78.2535 63.3807 85.28 56.3542 85.28 47.6866C85.28 39.0191 78.2535 31.9926 69.5859 31.9926ZM69.5859 46.1753C67.1287 46.1753 65.1361 44.1843 65.1361 41.7254C65.1361 39.2682 67.1287 37.2773 69.5859 37.2773C72.0432 37.2773 74.0358 39.2683 74.0358 41.7254C74.0358 44.1843 72.0432 46.1753 69.5859 46.1753Z" fill="url(#paint9_linear)"/>
<path d="M69.586 34.7359C62.4332 34.7359 56.6353 40.5339 56.6353 47.6866C56.6353 54.8394 62.4332 60.6374 69.586 60.6374C76.7387 60.6374 82.5367 54.8394 82.5367 47.6866C82.5367 40.5339 76.7387 34.7359 69.586 34.7359ZM69.586 46.1753C67.1288 46.1753 65.1361 44.1843 65.1361 41.7254C65.1361 39.2682 67.1288 37.2773 69.586 37.2773C72.0432 37.2773 74.0359 39.2683 74.0359 41.7254C74.0359 44.1843 72.0432 46.1753 69.586 46.1753Z" fill="url(#paint10_linear)"/>
<path d="M69.5859 31.9926C60.9185 31.9926 53.8918 39.0191 53.8918 47.6866C53.8918 56.3542 60.9184 63.3807 69.5859 63.3807C78.2535 63.3807 85.28 56.3542 85.28 47.6866C85.28 39.0191 78.2535 31.9926 69.5859 31.9926ZM69.5859 46.1753C67.1287 46.1753 65.1361 44.1843 65.1361 41.7254C65.1361 39.2682 67.1287 37.2773 69.5859 37.2773C72.0432 37.2773 74.0358 39.2683 74.0358 41.7254C74.0358 44.1843 72.0432 46.1753 69.5859 46.1753Z" fill="url(#paint11_linear)"/>
<path d="M43.9204 72.473L44.9944 71.399C45.2896 71.1039 45.7046 70.9618 46.1187 71.014C46.9939 71.1246 47.7384 70.3801 47.6278 69.5049C47.5756 69.0908 47.7176 68.6758 48.0128 68.3807L49.0868 67.3067C49.4625 66.931 50.0714 66.931 50.4469 67.3067C50.8226 67.6823 51.4316 67.6823 51.8071 67.3067L52.5786 66.5352C52.9542 66.1595 52.9542 65.5505 52.5786 65.175C52.2029 64.7994 52.2029 64.1904 52.5786 63.8149L54.6308 61.7626C55.0065 61.3869 55.6155 61.3869 55.991 61.7626C56.3667 62.1383 56.9756 62.1383 57.3511 61.7626L60.8175 58.2962L53.1262 50.6049L35.616 68.115C34.922 68.809 34.5065 69.7331 34.4478 70.7128L34.1878 75.0597C34.1143 76.29 35.1324 77.3081 36.3627 77.2345L40.7096 76.9745C41.6893 76.9159 42.6134 76.5003 43.3074 75.8063L43.9204 75.1933C44.2961 74.8176 44.2961 74.2088 43.9204 73.8332C43.5448 73.4575 43.5448 72.8487 43.9204 72.473Z" fill="url(#paint12_linear)"/>
<path d="M58.1991 55.6771L40.0271 73.849C39.3495 74.5266 38.251 74.5266 37.5734 73.849C36.8958 73.1714 36.8958 72.0729 37.5734 71.3953L55.7453 53.2233L58.1991 55.6771Z" fill="url(#paint13_linear)"/>
<path d="M76.5107 34.9117C70.3819 28.7829 60.4448 28.7829 54.3159 34.9117C48.1869 41.0405 48.1871 50.9776 54.3159 57.1065C60.4447 63.2355 70.3817 63.2353 76.5107 57.1065C82.6396 50.9777 82.6396 41.0405 76.5107 34.9117ZM66.4821 44.9403C64.7445 43.2028 64.7434 40.386 66.4821 38.6473C68.2196 36.9097 71.0364 36.911 72.774 38.6484C74.5115 40.386 74.5127 43.2028 72.7751 44.9403C71.0364 46.679 68.2195 46.6779 66.4821 44.9403Z" fill="url(#paint14_linear)"/>
<path d="M74.5709 36.8517C69.5131 31.7938 61.3136 31.7938 56.2558 36.8517C51.1979 41.9095 51.1979 50.109 56.2558 55.1668C61.3136 60.2246 69.5131 60.2246 74.5709 55.1668C79.6287 50.109 79.6287 41.9093 74.5709 36.8517ZM66.4821 44.9404C64.7446 43.2029 64.7434 40.3861 66.4821 38.6474C68.2197 36.9098 71.0365 36.9112 72.774 38.6486C74.5116 40.3861 74.5127 43.2029 72.7752 44.9404C71.0365 46.6791 68.2195 46.678 66.4821 44.9404Z" fill="url(#paint15_linear)"/>
<path d="M72.4038 45.272L82.9883 55.8565C84.4422 53.4766 85.2802 50.6797 85.2802 47.6867C85.2802 45.6029 84.8731 43.6143 84.1356 41.795C82.7664 43.0993 79.3157 45.4624 72.4038 45.272Z" fill="url(#paint16_linear)"/>
<path d="M75.5102 17C67.7647 17 61.436 23.1906 61.2124 30.8854C63.294 30.3096 65.4691 30.17 67.5966 30.4681C68.0155 26.4717 71.4042 23.3462 75.5102 23.3462C79.9002 23.3462 83.4699 26.9175 83.4699 31.3058C83.4699 34.3884 81.7072 37.0681 79.1387 38.3896C78.0503 38.9497 76.816 39.2654 75.5102 39.2654C74.6186 39.2654 73.7618 39.1179 72.9607 38.8465H72.9591C72.0199 38.5276 71.16 38.0375 70.4144 37.4154C69.0309 37.1663 67.5523 37.5772 66.4829 38.6466C65.7579 39.3717 65.3359 40.2839 65.2168 41.2263C67.1302 43.2159 69.6163 44.6516 72.4038 45.2719C73.405 45.4941 74.4442 45.6114 75.5102 45.6114C77.468 45.6114 79.3353 45.2163 81.0361 44.5009C86.1892 42.3353 89.816 37.2361 89.816 31.3057C89.816 23.4175 83.3985 17 75.5102 17V17Z" fill="url(#paint17_linear)"/>
<path d="M86.5173 31.3059C86.5173 25.2289 81.591 20.3024 75.5138 20.3024C69.7625 20.3024 65.0446 24.7157 64.5552 30.3401C65.5696 30.285 66.5883 30.3268 67.5963 30.4681C68.0152 26.4716 71.4039 23.3461 75.5099 23.3461C79.8999 23.3461 83.4696 26.9174 83.4696 31.3057C83.4696 34.3883 81.7069 37.068 79.1384 38.3896C78.05 38.9496 76.8157 39.2654 75.5099 39.2654C74.6183 39.2654 73.7615 39.1178 72.9604 38.8465H72.9588C72.0196 38.5276 71.1597 38.0374 70.4141 37.4154C69.2281 37.2018 67.9728 37.4749 66.9648 38.2305C68.9823 40.7181 72.0618 42.3091 75.514 42.3091C81.591 42.3094 86.5173 37.383 86.5173 31.3059Z" fill="url(#paint18_linear)"/>
</g>
<defs>
<linearGradient id="paint0_linear" x1="-15.6585" y1="20.5003" x2="41.968" y2="20.5003" gradientUnits="userSpaceOnUse">
<stop stop-color="#FEE903"/>
<stop offset="0.2305" stop-color="#FEE505"/>
<stop offset="0.4171" stop-color="#FEDB0B"/>
<stop offset="0.5884" stop-color="#FECA15"/>
<stop offset="0.7504" stop-color="#FEB223"/>
<stop offset="0.9046" stop-color="#FE9435"/>
<stop offset="1" stop-color="#FE7D43"/>
</linearGradient>
<linearGradient id="paint1_linear" x1="-15.6585" y1="20.5003" x2="41.968" y2="20.5003" gradientUnits="userSpaceOnUse">
<stop stop-color="#FEE903"/>
<stop offset="0.2305" stop-color="#FEE505"/>
<stop offset="0.4171" stop-color="#FEDB0B"/>
<stop offset="0.5884" stop-color="#FECA15"/>
<stop offset="0.7504" stop-color="#FEB223"/>
<stop offset="0.9046" stop-color="#FE9435"/>
<stop offset="1" stop-color="#FE7D43"/>
</linearGradient>
<linearGradient id="paint2_linear" x1="91.5452" y1="65" x2="102.73" y2="65" gradientUnits="userSpaceOnUse">
<stop stop-color="#FEE903"/>
<stop offset="0.2305" stop-color="#FEE505"/>
<stop offset="0.4171" stop-color="#FEDB0B"/>
<stop offset="0.5884" stop-color="#FECA15"/>
<stop offset="0.7504" stop-color="#FEB223"/>
<stop offset="0.9046" stop-color="#FE9435"/>
<stop offset="1" stop-color="#FE7D43"/>
</linearGradient>
<linearGradient id="paint3_linear" x1="91.5452" y1="65" x2="102.73" y2="65" gradientUnits="userSpaceOnUse">
<stop stop-color="#FEE903"/>
<stop offset="0.2305" stop-color="#FEE505"/>
<stop offset="0.4171" stop-color="#FEDB0B"/>
<stop offset="0.5884" stop-color="#FECA15"/>
<stop offset="0.7504" stop-color="#FEB223"/>
<stop offset="0.9046" stop-color="#FE9435"/>
<stop offset="1" stop-color="#FE7D43"/>
</linearGradient>
<linearGradient id="paint4_linear" x1="28.0003" y1="43.9999" x2="43.9997" y2="43.9999" gradientUnits="userSpaceOnUse">
<stop stop-color="#FEE903"/>
<stop offset="0.2305" stop-color="#FEE505"/>
<stop offset="0.4171" stop-color="#FEDB0B"/>
<stop offset="0.5884" stop-color="#FECA15"/>
<stop offset="0.7504" stop-color="#FEB223"/>
<stop offset="0.9046" stop-color="#FE9435"/>
<stop offset="1" stop-color="#FE7D43"/>
</linearGradient>
<linearGradient id="paint5_linear" x1="91.0001" y1="12.4999" x2="108.999" y2="12.4999" gradientUnits="userSpaceOnUse">
<stop stop-color="#FEE903"/>
<stop offset="0.2305" stop-color="#FEE505"/>
<stop offset="0.4171" stop-color="#FEDB0B"/>
<stop offset="0.5884" stop-color="#FECA15"/>
<stop offset="0.7504" stop-color="#FEB223"/>
<stop offset="0.9046" stop-color="#FE9435"/>
<stop offset="1" stop-color="#FE7D43"/>
</linearGradient>
<linearGradient id="paint6_linear" x1="64.8235" y1="75.3121" x2="73.516" y2="75.3121" gradientUnits="userSpaceOnUse">
<stop stop-color="#FFDA2D"/>
<stop offset="1" stop-color="#FDBF00"/>
</linearGradient>
<linearGradient id="paint7_linear" x1="73.2027" y1="73.3411" x2="67.7013" y2="73.3411" gradientUnits="userSpaceOnUse">
<stop stop-color="#FFDA2D"/>
<stop offset="1" stop-color="#FDBF00"/>
</linearGradient>
<linearGradient id="paint8_linear" x1="72.7868" y1="68.9587" x2="69.4022" y2="60.4443" gradientUnits="userSpaceOnUse">
<stop stop-color="#FF9100" stop-opacity="0"/>
<stop offset="1" stop-color="#FF9100"/>
</linearGradient>
<linearGradient id="paint9_linear" x1="62.5294" y1="54.7432" x2="94.271" y2="23.0016" gradientUnits="userSpaceOnUse">
<stop stop-color="#FFDA2D"/>
<stop offset="1" stop-color="#FDBF00"/>
</linearGradient>
<linearGradient id="paint10_linear" x1="75.8095" y1="41.4631" x2="45.7723" y2="71.5003" gradientUnits="userSpaceOnUse">
<stop stop-color="#FFDA2D"/>
<stop offset="1" stop-color="#FDBF00"/>
</linearGradient>
<linearGradient id="paint11_linear" x1="81.412" y1="59.5127" x2="70.7686" y2="48.8693" gradientUnits="userSpaceOnUse">
<stop stop-color="#FF9100" stop-opacity="0"/>
<stop offset="1" stop-color="#FF9100"/>
</linearGradient>
<linearGradient id="paint12_linear" x1="42.4916" y1="62.1888" x2="48.6371" y2="68.3343" gradientUnits="userSpaceOnUse">
<stop stop-color="#FFDA2D"/>
<stop offset="1" stop-color="#FDBF00"/>
</linearGradient>
<linearGradient id="paint13_linear" x1="49.8089" y1="66.7193" x2="45.9194" y2="62.8298" gradientUnits="userSpaceOnUse">
<stop stop-color="#FFDA2D"/>
<stop offset="1" stop-color="#FDBF00"/>
</linearGradient>
<linearGradient id="paint14_linear" x1="55.4119" y1="46.0247" x2="100.295" y2="46.0247" gradientUnits="userSpaceOnUse">
<stop stop-color="#FFDA2D"/>
<stop offset="1" stop-color="#FDBF00"/>
</linearGradient>
<linearGradient id="paint15_linear" x1="74.1898" y1="46.0248" x2="31.7175" y2="46.0248" gradientUnits="userSpaceOnUse">
<stop stop-color="#FFDA2D"/>
<stop offset="1" stop-color="#FDBF00"/>
</linearGradient>
<linearGradient id="paint16_linear" x1="80.6979" y1="50.9293" x2="78.4767" y2="44.1072" gradientUnits="userSpaceOnUse">
<stop stop-color="#FF9100" stop-opacity="0"/>
<stop offset="1" stop-color="#FF9100"/>
</linearGradient>
<linearGradient id="paint17_linear" x1="61.2124" y1="31.3058" x2="89.816" y2="31.3058" gradientUnits="userSpaceOnUse">
<stop stop-color="#0B799D"/>
<stop offset="1" stop-color="#07485E"/>
</linearGradient>
<linearGradient id="paint18_linear" x1="89.7025" y1="45.4933" x2="65.044" y2="20.8347" gradientUnits="userSpaceOnUse">
<stop stop-color="#0B799D"/>
<stop offset="1" stop-color="#07485E"/>
</linearGradient>
<clipPath id="clip0">
<rect width="74" height="74" fill="white" transform="translate(25 17)"/>
</clipPath>
</defs>
</svg>
