<svg width="65" height="65" viewBox="0 0 65 65" fill="none" xmlns="http://www.w3.org/2000/svg">
<g clip-path="url(#clip0)">
<path d="M32.7796 13.5156H32.7394L29.9165 19.9576L35.2775 20.0781L32.7796 13.5156Z" fill="white"/>
<path d="M32.5018 0C26.0736 0 19.7897 1.9062 14.4448 5.47755C9.0999 9.04889 4.93406 14.125 2.47407 20.0639C0.0140825 26.0029 -0.629562 32.5379 0.624528 38.8426C1.87862 45.1474 4.97412 50.9386 9.51958 55.4841C14.065 60.0296 19.8563 63.1251 26.1611 64.3791C32.4658 65.6332 39.0008 64.9896 44.9398 62.5296C50.8787 60.0696 55.9548 55.9038 59.5261 50.5589C63.0975 45.214 65.0037 38.9301 65.0037 32.5018C65.0037 23.8818 61.5794 15.6148 55.4841 9.51957C49.3888 3.42429 41.1219 0 32.5018 0V0ZM32.0307 11.0178L33.7727 11.0579L39.5244 25.3551L37.2858 25.3076L35.9419 21.7726L29.2151 21.6265L27.7544 25.0958L25.5121 25.0483L32.0307 11.0178ZM38.0929 53.9859H36.1756V47.5001H28.828V53.9859H26.9071V39.8056H28.828V45.6925H36.1756V39.8056H38.0929V53.9859ZM40.4301 33.2322H24.5736V31.8372H40.4301V33.2322Z" fill="white"/>
</g>
<defs>
<clipPath id="clip0">
<rect width="65" height="65" fill="white"/>
</clipPath>
</defs>
</svg>
