<svg width="209" height="62" viewBox="0 0 209 62" fill="none" xmlns="http://www.w3.org/2000/svg">
<path d="M0 7.01489C0 3.14067 3.14067 0 7.01489 0H201.608C205.482 0 208.623 3.14067 208.623 7.01489V54.6034C208.623 58.4776 205.482 61.6182 201.608 61.6182H7.01489C3.14068 61.6182 0 58.4776 0 54.6034V7.01489Z" fill="black"/>
<path fill-rule="evenodd" clip-rule="evenodd" d="M201.608 1.40298H7.01489C3.91552 1.40298 1.40298 3.91552 1.40298 7.01489V54.6034C1.40298 57.7027 3.91552 60.2153 7.01489 60.2153H201.608C204.707 60.2153 207.22 57.7027 207.22 54.6034V7.01489C207.22 3.91552 204.707 1.40298 201.608 1.40298ZM7.01489 0C3.14067 0 0 3.14067 0 7.01489V54.6034C0 58.4776 3.14068 61.6182 7.01489 61.6182H201.608C205.482 61.6182 208.623 58.4776 208.623 54.6034V7.01489C208.623 3.14067 205.482 0 201.608 0H7.01489Z" fill="#A6A6A6"/>
<path fill-rule="evenodd" clip-rule="evenodd" d="M201.608 1.40298H7.01489C3.91552 1.40298 1.40298 3.91552 1.40298 7.01489V54.6034C1.40298 57.7027 3.91552 60.2153 7.01489 60.2153H201.608C204.707 60.2153 207.22 57.7027 207.22 54.6034V7.01489C207.22 3.91552 204.707 1.40298 201.608 1.40298ZM7.01489 0C3.14067 0 0 3.14067 0 7.01489V54.6034C0 58.4776 3.14068 61.6182 7.01489 61.6182H201.608C205.482 61.6182 208.623 58.4776 208.623 54.6034V7.01489C208.623 3.14067 205.482 0 201.608 0H7.01489Z" fill="#8F8F8F"/>
<path fill-rule="evenodd" clip-rule="evenodd" d="M115.606 15.4328C115.606 18.2222 113.345 20.4835 110.555 20.4835C107.766 20.4835 105.504 18.2222 105.504 15.4328C105.504 12.6434 107.766 10.3821 110.555 10.3821C113.345 10.3821 115.606 12.6434 115.606 15.4328ZM114.062 15.4328C114.062 17.3699 112.492 18.9402 110.555 18.9402C108.618 18.9402 107.047 17.3699 107.047 15.4328C107.047 13.4957 108.618 11.9253 110.555 11.9253C112.492 11.9253 114.062 13.4957 114.062 15.4328Z" fill="white"/>
<path fill-rule="evenodd" clip-rule="evenodd" d="M80.3912 10.803H74.7793V10.9429H74.7791V14.8716V15.994V19.0806V20.2026V20.2029H80.391V19.0806H76.3223V15.994H79.9701V14.8716H76.3223V11.9254H80.3912V10.803Z" fill="white"/>
<path fill-rule="evenodd" clip-rule="evenodd" d="M88.2477 10.803H81.9343V11.9254H84.3192V20.203H85.8625V11.9254H88.2477V10.803Z" fill="white"/>
<path fill-rule="evenodd" clip-rule="evenodd" d="M101.997 10.803H95.6836V11.9254H98.0693V20.203H99.6125V11.9254H101.997V10.803Z" fill="white"/>
<rect x="92.7373" y="10.803" width="1.54328" height="9.39995" fill="white"/>
<path fill-rule="evenodd" clip-rule="evenodd" d="M116.869 10.803H118.412V10.803H118.691L122.901 17.6822V10.803H124.444V20.203H124.444H122.901H122.9L118.412 12.8682V20.2029H116.869V10.803Z" fill="white"/>
<path fill-rule="evenodd" clip-rule="evenodd" d="M68.9973 15.0359H73.2227L73.1809 16.3732H68.9973V15.0359Z" fill="white"/>
<path fill-rule="evenodd" clip-rule="evenodd" d="M68.9339 20.4265C71.7176 20.4515 74.0394 18.4907 73.5751 15.0852C73.5751 15.0687 73.5751 15.0523 73.5749 15.0359H72.3412C72.3513 15.178 72.3548 15.3244 72.3514 15.4747C72.3544 17.907 70.9518 19.0478 68.9763 19.0478C67.0008 19.0478 65.3993 17.4481 65.3993 15.4747C65.3993 13.5013 67.0008 11.9016 68.9763 11.9016C69.9646 11.9016 70.8211 12.2392 71.4242 12.8551L72.391 11.8894C71.5685 11.0217 70.3653 10.5221 68.9339 10.5221C66.1959 10.5221 63.9763 12.7393 63.9763 15.4743C63.9763 18.2093 66.1959 20.4226 68.9339 20.4265Z" fill="white"/>
<path fill-rule="evenodd" clip-rule="evenodd" d="M159.475 27.6387H151.521V39.7126H159.475C159.475 39.7126 164.054 38.9336 164.054 33.6757C164.054 28.4177 159.475 27.6387 159.475 27.6387ZM158.464 30.5592H153.064V37.0386H158.464C158.464 37.0386 160.921 37.0386 160.921 33.7989C160.921 30.5592 158.464 30.5592 158.464 30.5592Z" fill="white"/>
<rect x="150.82" y="27.6387" width="2.80596" height="19.6417" fill="white"/>
<rect x="165.692" y="27.6387" width="2.80596" height="19.6417" fill="white"/>
<path fill-rule="evenodd" clip-rule="evenodd" d="M175.994 34.2325C172.069 34.2325 170.761 36.9288 170.761 36.9288L173.099 38.3101C173.099 38.3101 173.663 36.9288 176.218 36.9288C178.08 36.9288 178.7 38.3375 178.899 39.101V39.6747C178.084 39.2785 176.32 38.6544 173.801 39.0289C170.386 39.5369 170.454 42.6257 170.465 43.1133C170.465 43.1334 170.465 43.1491 170.465 43.16C170.465 43.4351 170.468 47.5148 174.938 47.2356C176.89 47.1137 178.126 46.5135 178.899 45.8758V47.274H181.705V38.7158H181.704C181.696 37.567 180.851 34.2325 175.994 34.2325ZM173.104 43.2485C173.292 40.2117 178.698 41.6688 178.698 41.6688C178.698 41.6688 178.771 41.9898 178.771 42.6744C178.29 44.8272 172.916 46.2854 173.104 43.2485Z" fill="white"/>
<path fill-rule="evenodd" clip-rule="evenodd" d="M188.372 43.2029L184.773 34.6534H181.967L186.969 46.5351L184.352 52.7518H187.158L194.749 34.7214H191.943L188.372 43.2029Z" fill="white"/>
<path fill-rule="evenodd" clip-rule="evenodd" d="M138.604 34.2325C143.308 34.2325 144.539 39.2448 144.539 39.2448L135.664 42.9124C135.664 42.9124 136.237 44.9409 138.905 44.9545C140.995 44.9652 142.174 43.1027 142.174 43.1027L144.426 44.6275C144.426 44.6275 142.609 47.5659 138.888 47.5659C134.315 47.5659 132.301 43.5675 132.301 40.9708C132.301 38.4689 133.9 34.2325 138.604 34.2325ZM138.333 36.8204C140.045 36.5071 141.162 38.2059 141.162 38.2059L135.166 40.6528C135.166 40.6528 134.71 37.4831 138.333 36.8204Z" fill="white"/>
<rect x="128.092" y="27.6387" width="2.96853" height="19.6004" fill="white"/>
<path fill-rule="evenodd" clip-rule="evenodd" d="M123.342 35.8817V34.6585L126.086 34.6822V47.0495C126.086 50.2093 124.204 53.5448 119.776 53.5448C115.347 53.5448 113.916 49.6207 113.916 49.6207L116.436 48.5608C116.436 48.5608 117.205 50.9792 119.907 50.9792C122.983 50.9792 123.342 48.1804 123.342 47.2224V45.8803C123.342 45.8803 122.278 47.5462 119.634 47.5462C116.767 47.5462 113.361 45.0903 113.361 40.9034C113.361 36.7166 116.568 34.3217 119.667 34.2346C122.149 34.1648 123.342 35.8817 123.342 35.8817ZM123.492 40.9387C123.492 43.2 121.869 45.0331 119.868 45.0331C117.867 45.0331 116.245 43.2 116.245 40.9387C116.245 38.6775 117.867 36.8444 119.868 36.8444C121.869 36.8444 123.492 38.6775 123.492 40.9387Z" fill="white"/>
<path fill-rule="evenodd" clip-rule="evenodd" d="M112.128 40.8967C112.128 44.5772 109.138 47.5608 105.449 47.5608C101.76 47.5608 98.77 44.5772 98.77 40.8967C98.77 37.2162 101.76 34.2325 105.449 34.2325C109.138 34.2325 112.128 37.2162 112.128 40.8967ZM109.161 40.8967C109.161 43.1339 107.48 44.9475 105.406 44.9475C103.333 44.9475 101.652 43.1339 101.652 40.8967C101.652 38.6596 103.333 36.846 105.406 36.846C107.48 36.846 109.161 38.6596 109.161 40.8967Z" fill="white"/>
<path fill-rule="evenodd" clip-rule="evenodd" d="M97.6777 40.8967C97.6777 44.5772 94.6874 47.5608 90.9985 47.5608C87.3097 47.5608 84.3193 44.5772 84.3193 40.8967C84.3193 37.2162 87.3097 34.2325 90.9985 34.2325C94.6874 34.2325 97.6777 37.2162 97.6777 40.8967ZM94.7087 40.8967C94.7087 43.1339 93.0278 44.9475 90.9544 44.9475C88.8809 44.9475 87.2 43.1339 87.2 40.8967C87.2 38.6596 88.8809 36.846 90.9544 36.846C93.0278 36.846 94.7087 38.6596 94.7087 40.8967Z" fill="white"/>
<path fill-rule="evenodd" clip-rule="evenodd" d="M73.7517 36.3453H82.57L82.4827 39.133H73.7517V36.3453Z" fill="white"/>
<path fill-rule="evenodd" clip-rule="evenodd" d="M73.6206 47.5829C79.4301 47.6352 84.2757 43.5476 83.3067 36.449C83.3067 36.4144 83.3066 36.3798 83.3063 36.3454H80.7305C80.7515 36.6417 80.7588 36.9467 80.7518 37.26C80.7579 42.3301 77.8308 44.7082 73.708 44.7082C69.5852 44.7082 66.243 41.3735 66.243 37.26C66.243 33.1465 69.5852 29.8118 73.708 29.8118C75.7706 29.8118 77.5582 30.5157 78.8168 31.7997L80.8346 29.7864C79.1182 27.9783 76.6074 26.9371 73.6206 26.9371C67.9066 26.9371 63.2744 31.5588 63.2744 37.26C63.2744 42.9612 67.9066 47.5747 73.6206 47.5829Z" fill="white"/>
<path fill-rule="evenodd" clip-rule="evenodd" d="M46.3767 26.8992C49.3556 28.5935 49.3556 32.887 46.3767 34.5813L21.9238 48.4898C18.9779 50.1654 15.3201 48.0378 15.3201 44.6488V16.8322C15.3201 13.4431 18.9778 11.3156 21.9237 12.9911L46.3767 26.8992Z" fill="url(#paint0_linear)"/>
<path fill-rule="evenodd" clip-rule="evenodd" d="M46.3769 26.8992C49.3559 28.5935 49.3559 32.887 46.3769 34.5813L21.924 48.4898C18.9781 50.1654 15.3203 48.0378 15.3203 44.6488V16.8322C15.3203 13.4431 18.9781 11.3156 21.924 12.9911L46.3769 26.8992Z" fill="url(#paint1_linear)"/>
<path fill-rule="evenodd" clip-rule="evenodd" d="M46.3767 26.8992C49.3556 28.5935 49.3556 32.887 46.3767 34.5813L21.9238 48.4898C18.9779 50.1654 15.3201 48.0378 15.3201 44.6488V16.8322C15.3201 13.4431 18.9778 11.3156 21.9237 12.9911L46.3767 26.8992Z" fill="url(#paint2_linear)"/>
<path fill-rule="evenodd" clip-rule="evenodd" d="M17.4359 13.0605L34.9035 30.4217L17.326 48.3512C16.1443 47.5829 15.3196 46.258 15.3196 44.6488V16.8322C15.3196 15.1735 16.1958 13.8169 17.4359 13.0605Z" fill="#01E2FF"/>
<path fill-rule="evenodd" clip-rule="evenodd" d="M17.2681 48.3126L34.9047 30.423L41.6805 37.2526L21.9238 48.4899C20.3536 49.383 18.5811 49.1956 17.2681 48.3126Z" fill="#F2414E"/>
<path fill-rule="evenodd" clip-rule="evenodd" d="M41.5051 24.1282L21.924 12.9911C20.4203 12.1358 18.731 12.2715 17.4375 13.0601L34.9021 30.4274L41.5051 24.1282Z" fill="#28D781"/>
<defs>
<linearGradient id="paint0_linear" x1="50.8746" y1="23.0245" x2="37.0394" y2="23.0245" gradientUnits="userSpaceOnUse">
<stop stop-color="#FBDA09"/>
<stop offset="1" stop-color="#FFBC00"/>
</linearGradient>
<linearGradient id="paint1_linear" x1="50.8748" y1="23.0245" x2="37.0397" y2="23.0245" gradientUnits="userSpaceOnUse">
<stop stop-color="#FBDA09"/>
<stop offset="1" stop-color="#FFBC00"/>
</linearGradient>
<linearGradient id="paint2_linear" x1="50.8746" y1="23.0245" x2="37.0394" y2="23.0245" gradientUnits="userSpaceOnUse">
<stop stop-color="#FBDA09"/>
<stop offset="1" stop-color="#FFBC00"/>
</linearGradient>
</defs>
</svg>
