<svg width="10" height="8" viewBox="0 0 10 8" fill="none" xmlns="http://www.w3.org/2000/svg">
<path d="M5.57768 6.9136L9.7561 2.72896C9.91871 2.57485 9.99998 2.38241 9.99998 2.15126C9.99998 1.92011 9.91862 1.72767 9.7561 1.57356L9.27465 1.08577C9.11631 0.927413 8.92385 0.848235 8.69707 0.848235C8.47457 0.848235 8.27982 0.927391 8.11298 1.08577L4.99997 4.20508L1.88054 1.08563C1.72221 0.927323 1.52975 0.848145 1.30293 0.848145C1.08046 0.848145 0.885641 0.9273 0.718876 1.08563L0.23749 1.57347C0.0791557 1.73181 9.91031e-09 1.92445 0 2.15117C-9.91424e-09 2.37798 0.0791557 2.57058 0.23749 2.72886L4.41591 6.9136C4.58279 7.072 4.77749 7.15125 4.99999 7.15125C5.22678 7.15127 5.41935 7.072 5.57768 6.9136Z" fill="#9A9FBF" fill-opacity="0.5"/>
</svg>
