<svg width="110" height="110" viewBox="0 0 110 110" fill="none" xmlns="http://www.w3.org/2000/svg">
<g clip-path="url(#clip0)">
<path d="M84.2227 98.7635H3.97035C1.77769 98.7635 0 96.9861 0 94.7932V22.1397C0 16.118 4.88163 11.2363 10.9034 11.2363H99.0964C93.0747 11.2363 88.193 16.118 88.193 22.1397V94.7934C88.193 96.9861 86.4156 98.7635 84.2227 98.7635Z" fill="url(#paint0_linear)"/>
<path d="M88.1929 36.3875H106.029C108.222 36.3875 110 34.6098 110 32.4172V22.1397C110 16.118 105.118 11.2363 99.0962 11.2363C93.0745 11.2363 88.1929 16.118 88.1929 22.1397V36.3875Z" fill="url(#paint1_linear)"/>
<path d="M88.193 76.2266V94.7935C88.193 96.9864 86.4154 98.7638 84.2227 98.7638H3.97035C1.77769 98.7641 0 96.9864 0 94.7935V76.2266H88.193Z" fill="url(#paint2_linear)"/>
<path d="M46.0047 63.9199H13.9194C13.2806 63.9199 12.7627 64.4378 12.7627 65.0767V67.5827C12.7627 68.2216 13.2806 68.7394 13.9194 68.7394H46.0049C46.6438 68.7394 47.1616 68.2216 47.1616 67.5827V65.0767C47.1614 64.4378 46.6436 63.9199 46.0047 63.9199Z" fill="url(#paint3_linear)"/>
<path d="M46.0047 49.9189H13.9194C13.2806 49.9189 12.7627 50.4368 12.7627 51.0757V53.5817C12.7627 54.2206 13.2806 54.7385 13.9194 54.7385H46.0049C46.6438 54.7385 47.1616 54.2206 47.1616 53.5817V51.0757C47.1614 50.4368 46.6436 49.9189 46.0047 49.9189Z" fill="url(#paint4_linear)"/>
<path d="M64.5708 35.9189H13.9194C13.2806 35.9189 12.7627 36.4368 12.7627 37.0757V39.5817C12.7627 40.2206 13.2806 40.7385 13.9194 40.7385H64.5708C65.2096 40.7385 65.7275 40.2206 65.7275 39.5817V37.0757C65.7275 36.4368 65.2096 35.9189 64.5708 35.9189Z" fill="url(#paint5_linear)"/>
<path d="M88.1936 48.2198L87.4738 48.9395L77.1034 38.5691C75.7144 37.1801 73.8897 36.4834 72.0693 36.4834C71.2734 36.4834 70.4775 36.615 69.7183 36.8803C68.7369 37.2232 67.8181 37.7861 67.033 38.5691C64.2528 41.3514 64.2528 45.8593 67.033 48.6395L77.4032 59.0103L67.0356 69.3775C65.6444 70.7687 64.9478 72.5912 64.9478 74.4138C64.9478 75.2097 65.0815 76.0077 65.3468 76.7669V76.7691C65.6897 77.7483 66.2527 78.6671 67.0356 79.45L85.9595 98.3595C87.2808 97.7148 88.1933 96.3622 88.1933 94.7931V48.2198H88.1936Z" fill="url(#paint6_linear)"/>
<path d="M97.5444 59.0103L107.915 48.6395C110.695 45.8593 110.695 41.3514 107.915 38.5691C107.13 37.7861 106.211 37.2232 105.229 36.8803C104.47 36.615 103.674 36.4834 102.878 36.4834C101.058 36.4834 99.2332 37.1801 97.8442 38.5691L87.4738 48.9395L77.1034 38.5691C75.7144 37.1801 73.8897 36.4834 72.0693 36.4834C71.2734 36.4834 70.4775 36.615 69.7183 36.8803C68.7369 37.2232 67.8181 37.7861 67.033 38.5691C64.2528 41.3514 64.2528 45.8593 67.033 48.6395L77.4032 59.0103L67.0356 69.3777C65.6444 70.7689 64.9478 72.5914 64.9478 74.414C64.9478 75.2099 65.0815 76.0079 65.3468 76.7671V76.7693C65.6897 77.7485 66.2527 78.6673 67.0356 79.4503C69.8158 82.2305 74.3258 82.2305 77.106 79.4503L87.4738 69.0818L97.8416 79.4503C100.622 82.2305 105.132 82.2305 107.912 79.4503C108.695 78.6673 109.258 77.7485 109.601 76.7693C109.601 76.7693 109.601 76.7693 109.601 76.7671C109.866 76.0079 110 75.2099 110 74.414C110 72.5914 109.303 70.7689 107.912 69.3777L97.5444 59.0103Z" fill="url(#paint7_linear)"/>
</g>
<defs>
<linearGradient id="paint0_linear" x1="36.0269" y1="25.1815" x2="72.3474" y2="101.158" gradientUnits="userSpaceOnUse">
<stop stop-color="#D4F7FF"/>
<stop offset="1" stop-color="#A2E3E9"/>
</linearGradient>
<linearGradient id="paint1_linear" x1="101.291" y1="46.2491" x2="97.3455" y2="15.0831" gradientUnits="userSpaceOnUse">
<stop stop-color="#D4F7FF"/>
<stop offset="1" stop-color="#A2E3E9"/>
</linearGradient>
<linearGradient id="paint2_linear" x1="44.0966" y1="83.7877" x2="44.0966" y2="104.874" gradientUnits="userSpaceOnUse">
<stop stop-color="#A2E3E9" stop-opacity="0"/>
<stop offset="1" stop-color="#518CD2"/>
</linearGradient>
<linearGradient id="paint3_linear" x1="29.9622" y1="84.7805" x2="29.9622" y2="9.38726" gradientUnits="userSpaceOnUse">
<stop stop-color="#A34A9E"/>
<stop offset="1" stop-color="#343168"/>
</linearGradient>
<linearGradient id="paint4_linear" x1="29.9622" y1="70.7795" x2="29.9622" y2="-4.6139" gradientUnits="userSpaceOnUse">
<stop stop-color="#A34A9E"/>
<stop offset="1" stop-color="#343168"/>
</linearGradient>
<linearGradient id="paint5_linear" x1="39.2451" y1="56.7795" x2="39.2451" y2="-18.6139" gradientUnits="userSpaceOnUse">
<stop stop-color="#A34A9E"/>
<stop offset="1" stop-color="#343168"/>
</linearGradient>
<linearGradient id="paint6_linear" x1="107.615" y1="93.8357" x2="73.2364" y2="59.4566" gradientUnits="userSpaceOnUse">
<stop stop-color="#A2E3E9" stop-opacity="0"/>
<stop offset="1" stop-color="#518CD2"/>
</linearGradient>
<linearGradient id="paint7_linear" x1="77.2673" y1="33.6661" x2="94.2347" y2="75.797" gradientUnits="userSpaceOnUse">
<stop stop-color="#FF4974"/>
<stop offset="0.4497" stop-color="#FE4773"/>
<stop offset="0.6292" stop-color="#FC406D"/>
<stop offset="0.7605" stop-color="#F73464"/>
<stop offset="0.8683" stop-color="#F12257"/>
<stop offset="0.9606" stop-color="#E80C46"/>
<stop offset="1" stop-color="#E4003D"/>
</linearGradient>
<clipPath id="clip0">
<rect width="110" height="110" fill="white"/>
</clipPath>
</defs>
</svg>
